<svg width="21" height="20" viewBox="0 0 21 20" fill="none" xmlns="http://www.w3.org/2000/svg">
<path d="M7.84168 1.66669L4.82501 4.69169" stroke="#EC4C47" stroke-width="1.3" stroke-miterlimit="10" stroke-linecap="round" stroke-linejoin="round"/>
<path d="M13.1583 1.66669L16.175 4.69169" stroke="#EC4C47" stroke-width="1.3" stroke-miterlimit="10" stroke-linecap="round" stroke-linejoin="round"/>
<path d="M2.16669 6.54167C2.16669 5 2.99169 4.875 4.01669 4.875H16.9834C18.0084 4.875 18.8334 5 18.8334 6.54167C18.8334 8.33333 18.0084 8.20833 16.9834 8.20833H4.01669C2.99169 8.20833 2.16669 8.33333 2.16669 6.54167Z" stroke="#EC4C47" stroke-width="1.3"/>
<path d="M8.63336 11.6667V14.625" stroke="#EC4C47" stroke-width="1.3" stroke-linecap="round"/>
<path d="M12.4667 11.6667V14.625" stroke="#EC4C47" stroke-width="1.3" stroke-linecap="round"/>
<path d="M3.41669 8.33331L4.59169 15.5333C4.85835 17.15 5.50002 18.3333 7.88335 18.3333H12.9084C15.5 18.3333 15.8834 17.2 16.1834 15.6333L17.5834 8.33331" stroke="#EC4C47" stroke-width="1.3" stroke-linecap="round"/>
</svg>
