<svg width="20" height="20" viewBox="0 0 20 20" fill="none" xmlns="http://www.w3.org/2000/svg">
<path d="M4.16666 8.33317H5.83332C7.49999 8.33317 8.33332 7.49984 8.33332 5.83317V4.1665C8.33332 2.49984 7.49999 1.6665 5.83332 1.6665H4.16666C2.49999 1.6665 1.66666 2.49984 1.66666 4.1665V5.83317C1.66666 7.49984 2.49999 8.33317 4.16666 8.33317Z" stroke="white" stroke-width="1.5" stroke-miterlimit="10" stroke-linecap="round" stroke-linejoin="round"/>
<path d="M14.1667 8.33317H15.8333C17.5 8.33317 18.3333 7.49984 18.3333 5.83317V4.1665C18.3333 2.49984 17.5 1.6665 15.8333 1.6665H14.1667C12.5 1.6665 11.6667 2.49984 11.6667 4.1665V5.83317C11.6667 7.49984 12.5 8.33317 14.1667 8.33317Z" stroke="white" stroke-width="1.5" stroke-miterlimit="10" stroke-linecap="round" stroke-linejoin="round"/>
<path d="M14.1667 18.3332H15.8333C17.5 18.3332 18.3333 17.4998 18.3333 15.8332V14.1665C18.3333 12.4998 17.5 11.6665 15.8333 11.6665H14.1667C12.5 11.6665 11.6667 12.4998 11.6667 14.1665V15.8332C11.6667 17.4998 12.5 18.3332 14.1667 18.3332Z" stroke="white" stroke-width="1.5" stroke-miterlimit="10" stroke-linecap="round" stroke-linejoin="round"/>
<path d="M4.16666 18.3332H5.83332C7.49999 18.3332 8.33332 17.4998 8.33332 15.8332V14.1665C8.33332 12.4998 7.49999 11.6665 5.83332 11.6665H4.16666C2.49999 11.6665 1.66666 12.4998 1.66666 14.1665V15.8332C1.66666 17.4998 2.49999 18.3332 4.16666 18.3332Z" stroke="white" stroke-width="1.5" stroke-miterlimit="10" stroke-linecap="round" stroke-linejoin="round"/>
</svg>
