<svg width="20" height="20" viewBox="0 0 20 20" fill="none" xmlns="http://www.w3.org/2000/svg">
<path d="M16.6667 11.6668C17.5871 11.6668 18.3333 10.9206 18.3333 10.0002C18.3333 9.07969 17.5871 8.3335 16.6667 8.3335C15.7462 8.3335 15 9.07969 15 10.0002C15 10.9206 15.7462 11.6668 16.6667 11.6668Z" stroke="white" stroke-width="1.5" stroke-linecap="round" stroke-linejoin="round"/>
<path d="M16.6667 4.99984C17.5871 4.99984 18.3333 4.25365 18.3333 3.33317C18.3333 2.4127 17.5871 1.6665 16.6667 1.6665C15.7462 1.6665 15 2.4127 15 3.33317C15 4.25365 15.7462 4.99984 16.6667 4.99984Z" stroke="white" stroke-width="1.5" stroke-linecap="round" stroke-linejoin="round"/>
<path d="M16.6667 18.3333C17.5871 18.3333 18.3333 17.5871 18.3333 16.6667C18.3333 15.7462 17.5871 15 16.6667 15C15.7462 15 15 15.7462 15 16.6667C15 17.5871 15.7462 18.3333 16.6667 18.3333Z" stroke="white" stroke-width="1.5" stroke-linecap="round" stroke-linejoin="round"/>
<path d="M3.33332 11.6668C4.2538 11.6668 4.99999 10.9206 4.99999 10.0002C4.99999 9.07969 4.2538 8.3335 3.33332 8.3335C2.41285 8.3335 1.66666 9.07969 1.66666 10.0002C1.66666 10.9206 2.41285 11.6668 3.33332 11.6668Z" stroke="white" stroke-width="1.5" stroke-linecap="round" stroke-linejoin="round"/>
<path d="M5 10H15" stroke="white" stroke-width="1.5" stroke-linecap="round" stroke-linejoin="round"/>
<path d="M15 3.3335H11.6667C9.99999 3.3335 9.16666 4.16683 9.16666 5.8335V14.1668C9.16666 15.8335 9.99999 16.6668 11.6667 16.6668H15" stroke="white" stroke-width="1.5" stroke-linecap="round" stroke-linejoin="round"/>
</svg>
