<svg width="16" height="16" viewBox="0 0 16 16" fill="none" xmlns="http://www.w3.org/2000/svg">
<path d="M10.7934 1.3335H5.20671C2.78004 1.3335 1.33337 2.78016 1.33337 5.20683V10.7868C1.33337 13.2202 2.78004 14.6668 5.20671 14.6668H10.7867C13.2134 14.6668 14.66 13.2202 14.66 10.7935V5.20683C14.6667 2.78016 13.22 1.3335 10.7934 1.3335ZM11.1867 6.46683L7.40671 10.2468C7.31337 10.3402 7.18671 10.3935 7.05337 10.3935C6.92004 10.3935 6.79337 10.3402 6.70004 10.2468L4.81337 8.36016C4.62004 8.16683 4.62004 7.84683 4.81337 7.6535C5.00671 7.46016 5.32671 7.46016 5.52004 7.6535L7.05337 9.18683L10.48 5.76016C10.6734 5.56683 10.9934 5.56683 11.1867 5.76016C11.38 5.9535 11.38 6.26683 11.1867 6.46683Z" fill="#292D32"/>
</svg>
